<svg preserveAspectRatio="none" width="100%" height="100%" overflow="visible" style="display: block;" viewBox="0 0 375 55" fill="none" xmlns="http://www.w3.org/2000/svg">
<g id="Vector">
<path d="M365.006 35.248C365.006 34.5818 364.845 33.9943 364.602 33.5842C364.355 33.1668 364.06 32.9853 363.797 32.9852H2.17313C1.91092 32.9853 1.61582 33.1668 1.36853 33.5842C1.12555 33.9943 0.964691 34.5818 0.964653 35.248C0.964653 35.9142 1.12552 36.5022 1.36853 36.9124C1.61581 37.3297 1.91095 37.5113 2.17313 37.5113H363.797C364.06 37.5113 364.355 37.3297 364.602 36.9124C364.845 36.5022 365.006 35.9142 365.006 35.248ZM365.649 35.248C365.649 36.008 365.467 36.712 365.157 37.2365C364.85 37.7538 364.38 38.1508 363.797 38.1509H2.17313C1.59035 38.1508 1.12036 37.7538 0.813907 37.2365C0.503215 36.712 0.32147 36.008 0.32147 35.248C0.321509 34.4879 0.50314 33.784 0.813907 33.2594C1.12036 32.7422 1.59037 32.3457 2.17313 32.3457H363.797C364.38 32.3457 364.85 32.7422 365.157 33.2594C365.467 33.784 365.649 34.4879 365.649 35.248Z" fill="var(--fill-0, black)"/>
<path d="M365.006 24.917C365.006 24.2509 364.845 23.6634 364.602 23.2532C364.355 22.8359 364.06 22.6543 363.797 22.6543H2.17313C1.91092 22.6543 1.61582 22.8359 1.36853 23.2532C1.12555 23.6634 0.964691 24.2509 0.964653 24.917C0.964653 25.5833 1.12552 26.1713 1.36853 26.5814C1.61581 26.9987 1.91095 27.1803 2.17313 27.1804H363.797C364.06 27.1804 364.355 26.9987 364.602 26.5814C364.845 26.1713 365.006 25.5833 365.006 24.917ZM365.649 24.917C365.649 25.6771 365.467 26.381 365.157 26.9056C364.85 27.4228 364.38 27.8199 363.797 27.8199H2.17313C1.59035 27.8199 1.12036 27.4228 0.813907 26.9056C0.503215 26.381 0.32147 25.6771 0.32147 24.917C0.321509 24.1569 0.50314 23.453 0.813907 22.9285C1.12036 22.4112 1.59037 22.0148 2.17313 22.0148H363.797C364.38 22.0148 364.85 22.4112 365.157 22.9285C365.467 23.453 365.649 24.1569 365.649 24.917Z" fill="var(--fill-0, black)"/>
<path d="M365.006 19.7516C365.006 19.0854 364.845 18.4979 364.602 18.0878C364.355 17.6704 364.06 17.4889 363.797 17.4888H2.17313C1.91092 17.4889 1.61582 17.6704 1.36853 18.0878C1.12555 18.4979 0.964691 19.0854 0.964653 19.7516C0.964653 20.4178 1.12552 21.0058 1.36853 21.416C1.61581 21.8332 1.91095 22.0147 2.17313 22.0148H363.797C364.06 22.0147 364.355 21.8332 364.602 21.416C364.845 21.0058 365.006 20.4178 365.006 19.7516ZM365.649 19.7516C365.649 20.5116 365.467 21.2155 365.157 21.7401C364.85 22.2574 364.38 22.6543 363.797 22.6543H2.17313C1.59035 22.6543 1.12036 22.2574 0.813907 21.7401C0.503215 21.2155 0.32147 20.5116 0.32147 19.7516C0.321509 18.9915 0.50314 18.2875 0.813907 17.763C1.12036 17.2458 1.59037 16.8493 2.17313 16.8493H363.797C364.38 16.8493 364.85 17.2458 365.157 17.763C365.467 18.2875 365.649 18.9915 365.649 19.7516Z" fill="var(--fill-0, black)"/>
<path d="M365.006 14.586C365.006 13.9199 364.845 13.3324 364.602 12.9223C364.355 12.5049 364.06 12.3233 363.797 12.3233H2.17325C1.91104 12.3233 1.61594 12.5049 1.36865 12.9223C1.12567 13.3324 0.964812 13.9199 0.964773 14.586C0.964773 15.2523 1.12564 15.8403 1.36865 16.2505C1.61593 16.6677 1.91095 16.8493 2.17313 16.8493H363.797C364.06 16.8493 364.355 16.6677 364.602 16.2505C364.845 15.8403 365.006 15.2523 365.006 14.586ZM365.649 14.586C365.649 15.3461 365.467 16.05 365.157 16.5746C364.85 17.0919 364.38 17.4888 363.797 17.4888H2.17313C1.59035 17.4888 1.12048 17.0919 0.814028 16.5746C0.503336 16.05 0.321591 15.3461 0.321591 14.586C0.321629 13.826 0.503261 13.122 0.814028 12.5975C1.12048 12.0803 1.59049 11.6838 2.17325 11.6838H363.797C364.38 11.6838 364.85 12.0803 365.157 12.5975C365.467 13.122 365.649 13.826 365.649 14.586Z" fill="var(--fill-0, black)"/>
<path d="M365.006 30.0825C365.006 29.4164 364.845 28.8288 364.602 28.4187C364.355 28.0014 364.06 27.8199 363.797 27.8199H2.17313C1.91092 27.8199 1.61582 28.0014 1.36853 28.4187C1.12555 28.8288 0.964691 29.4164 0.964653 30.0825C0.964653 30.7487 1.12552 31.3367 1.36853 31.7469C1.61581 32.1642 1.91095 32.3457 2.17313 32.3457H363.797C364.06 32.3457 364.355 32.1642 364.602 31.7469C364.845 31.3367 365.006 30.7487 365.006 30.0825ZM365.649 30.0825C365.649 30.8425 365.467 31.5465 365.157 32.0711C364.85 32.5883 364.38 32.9852 363.797 32.9852H2.17313C1.59035 32.9852 1.12036 32.5883 0.813907 32.0711C0.503215 31.5465 0.32147 30.8425 0.32147 30.0825C0.321509 29.3224 0.50314 28.6185 0.813907 28.0939C1.12036 27.5767 1.59037 27.1804 2.17313 27.1804H363.797C364.38 27.1804 364.85 27.5767 365.157 28.0939C365.467 28.6185 365.649 29.3224 365.649 30.0825Z" fill="var(--fill-0, black)"/>
<path d="M22.0556 42.4296H21.091C20.2337 42.4296 19.5692 42.2807 19.0977 41.983C18.4975 41.5576 17.7045 40.0689 16.7185 37.5168L4.24406 5.48845H0.643182V3.82961H16.3327V5.48845H11.1886L22.57 34.4544L32.9225 5.48845H27.7784V3.82961H38.6453V5.48845H35.4303L22.0556 42.4296Z" fill="#7A9E7E"/>
<path d="M54.0777 40.5155C54.3778 40.5155 54.635 40.5368 54.8493 40.5793C55.4066 40.6644 55.6852 41.1748 55.6852 42.1106H40.4458V40.5155C41.5175 40.5155 42.3534 40.4517 42.9535 40.3241C44.3253 39.9413 45.0112 38.7929 45.0112 36.8788V16.4623H40.4458V14.8673H51.1841V40.5155H54.0777ZM51.8914 5.93507C51.8914 6.57308 51.7628 7.16856 51.5056 7.72151C50.7769 9.16768 49.5551 9.89076 47.8404 9.89076C47.2403 9.89076 46.6616 9.76316 46.1043 9.50795C44.6039 8.8274 43.8537 7.63644 43.8537 5.93507C43.8537 5.29705 44.0038 4.6803 44.3039 4.08482C45.0326 2.63865 46.2115 1.91557 47.8404 1.91557C48.4835 1.91557 49.105 2.06444 49.7052 2.36218C51.1627 3.1278 51.8914 4.31876 51.8914 5.93507Z" fill="#7A9E7E"/>
<path d="M77.2905 42.7486C73.2181 42.706 70.1316 41.0472 68.0311 37.7721L67.5167 42.1106H58.6431V40.4517C59.7576 40.4517 60.615 40.3667 61.2151 40.1965C62.4154 39.8137 63.0156 38.6865 63.0156 36.815V2.29838H58.6431V0.639535H69.1885V21.1836C69.1885 21.1411 69.2099 21.0773 69.2528 20.9922C71.3533 16.3985 74.7613 14.1017 79.4767 14.1017C82.0488 14.1017 84.2993 14.9311 86.2284 16.5899C89.1005 19.1845 90.5366 22.9488 90.5366 27.8828C90.5366 32.0937 89.3577 35.5815 87 38.3463C84.4708 41.2811 81.2343 42.7486 77.2905 42.7486ZM77.0333 16.8451C75.5329 16.8451 74.1826 17.3555 72.9823 18.3764C70.4531 20.5882 69.1885 24.3737 69.1885 29.7331C69.1885 31.9448 69.4457 33.9014 69.9601 35.6028C71.1176 39.2608 73.2609 41.0897 76.3903 41.0897C77.2905 41.0897 78.1264 40.8983 78.898 40.5155C82.1131 39.0268 83.7206 35.0286 83.7206 28.5208C83.7206 27.2448 83.6563 26.0326 83.5277 24.8841C82.8419 19.5248 80.677 16.8451 77.0333 16.8451Z" fill="#7A9E7E"/>
<path d="M108.927 15.6967C108.112 15.6967 107.362 15.8456 106.676 16.1433C103.676 17.4619 102.089 20.8434 101.918 26.2878L107.641 26.4154C109.441 26.5004 110.834 26.4154 111.82 26.1602C113.578 25.6923 114.457 24.4163 114.457 22.3321C114.457 21.4814 114.35 20.652 114.135 19.8438C113.406 17.0791 111.67 15.6967 108.927 15.6967ZM120.437 35.7942C120.18 36.3897 119.879 36.9852 119.537 37.5806C117.393 41.0259 113.899 42.7486 109.055 42.7486C106.183 42.7486 103.611 42.068 101.339 40.7069C97.1811 38.2399 95.102 34.1779 95.102 28.5208C95.102 25.2457 95.895 22.3746 97.4811 19.9076C99.9675 16.037 103.761 14.1017 108.862 14.1017C111.563 14.1017 113.985 14.6546 116.129 15.7605C119.344 17.4194 120.951 19.8438 120.951 23.0339C120.951 24.2674 120.608 25.2882 119.922 26.0964C118.465 27.6276 114.8 28.3294 108.927 28.2018L101.918 28.0742C101.918 28.1167 101.918 28.1593 101.918 28.2018C102.132 36.7087 104.919 40.9621 110.277 40.9621C110.963 40.9621 111.649 40.8771 112.335 40.7069C115.293 40.0264 117.479 38.2187 118.894 35.2838L120.437 35.7942Z" fill="#7A9E7E"/>
<path d="M168.47 15.6329H166.991L165.834 12.06C165.791 11.9324 165.748 11.7835 165.705 11.6134C164.419 7.53011 162.083 5.48845 158.696 5.48845H149.565V21.4388H162.49V23.2891H149.565V40.4517H158.696C159.211 40.4517 159.704 40.4092 160.175 40.3241C162.79 39.8137 164.676 37.6657 165.834 33.8802L166.991 30.3073H168.47L168.213 42.1106H137.541V40.4517H142.685V5.48845H137.541V3.82961H168.213L168.47 15.6329Z" fill="#7A9E7E"/>
<path d="M186.153 40.5155C186.453 40.5155 186.71 40.5368 186.924 40.5793C187.482 40.6644 187.76 41.1748 187.76 42.1106H173.228V40.5155C174.3 40.5155 175.136 40.4305 175.736 40.2603C176.979 39.92 177.601 38.7929 177.601 36.8788V16.4623H173.228V14.8673H183.388L183.709 20.6094C184.138 19.6311 184.695 18.7166 185.381 17.866C187.525 15.3564 190.182 14.1017 193.355 14.1017C194.855 14.1017 196.227 14.4419 197.47 15.1225C200.642 16.7813 202.228 19.8863 202.228 24.4375V40.5155H204.993C205.293 40.5155 205.55 40.5368 205.765 40.5793C206.322 40.6644 206.601 41.1748 206.601 42.1106H191.94V40.5155C193.012 40.5155 193.848 40.4305 194.448 40.2603C195.477 39.8775 195.991 38.7503 195.991 36.8788V23.6081C195.991 22.6723 195.884 21.7791 195.669 20.9284C194.941 18.3764 193.29 17.1003 190.718 17.1003C189.775 17.1003 188.853 17.3555 187.953 17.866C185.51 19.2696 184.138 21.6941 183.838 25.1393L183.774 40.5155H186.153Z" fill="#7A9E7E"/>
<path d="M217.339 24.4375C217.339 25.9688 217.425 27.2661 217.596 28.3294C218.196 31.6471 219.975 33.3059 222.933 33.3059C223.876 33.3059 224.712 33.1571 225.441 32.8593C227.542 31.881 228.592 29.0525 228.592 24.3737C228.592 22.8425 228.485 21.5239 228.27 20.418C227.713 17.2705 225.955 15.6967 222.998 15.6967C222.14 15.6967 221.369 15.8243 220.683 16.0795C218.454 16.9727 217.339 19.7587 217.339 24.4375ZM223.126 14.1017C225.655 14.1017 227.927 14.6546 229.942 15.7605C230.156 15.0374 230.457 14.3569 230.842 13.7189C232.085 11.7197 233.736 10.7202 235.794 10.7202C236.394 10.7202 236.972 10.8265 237.53 11.0392C238.901 11.5921 239.587 12.5704 239.587 13.9741C239.587 14.1017 239.566 14.2505 239.523 14.4207C239.309 15.5691 238.623 16.1433 237.465 16.1433C236.994 16.1433 236.501 15.9094 235.986 15.4415C235.215 14.761 234.55 14.4207 233.993 14.4207C232.793 14.4632 231.893 15.2076 231.292 16.6537C233.693 18.5252 234.915 21.0773 234.958 24.3099C234.958 26.7344 234.207 28.8824 232.707 30.7539C230.349 33.5611 227.091 34.9648 222.933 34.9648H222.74L216.76 34.901C216.503 34.901 216.224 34.9223 215.924 34.9648C214.681 35.22 214.06 35.858 214.06 36.8788C214.103 38.2399 214.981 38.9843 216.696 39.1119L229.042 39.3671C229.599 39.3671 230.178 39.4096 230.778 39.4947C235.236 40.0476 237.465 42.302 237.465 46.2577C237.465 47.4486 237.122 48.5545 236.437 49.5753C234.379 52.7654 229.985 54.3605 223.255 54.3605C220.554 54.3605 218.239 53.9777 216.31 53.212C213.438 52.0636 212.002 50.3197 212.002 47.9803C212.002 46.5341 212.645 45.1305 213.931 43.7694C212.259 42.5784 211.402 40.8983 211.359 38.7291C211.359 38.006 211.488 37.3042 211.745 36.6236C212.559 34.3693 214.231 33.2421 216.76 33.2421C216.374 33.0295 215.989 32.7743 215.603 32.4765C212.516 30.2647 210.973 27.5851 210.973 24.4375C210.973 22.0556 211.702 19.9927 213.159 18.2488C215.474 15.484 218.797 14.1017 223.126 14.1017ZM223.255 52.7016C225.312 52.7016 227.199 52.5102 228.913 52.1274C232.557 51.2767 234.379 49.8944 234.379 47.9803C234.379 47.5975 234.315 47.236 234.186 46.8957C233.757 45.6622 232.043 45.0454 229.042 45.0454L217.853 44.9178C216.996 44.9178 216.203 44.7902 215.474 44.535C214.66 45.5558 214.231 46.5979 214.188 47.6613C214.188 48.2142 214.317 48.7459 214.574 49.2563C215.689 51.5532 218.582 52.7016 223.255 52.7016Z" fill="#7A9E7E"/>
<path d="M254.955 40.5155C255.255 40.5155 255.513 40.5368 255.727 40.5793C256.284 40.6644 256.563 41.1748 256.563 42.1106H241.323V40.5155C242.395 40.5155 243.231 40.4517 243.831 40.3241C245.203 39.9413 245.889 38.7929 245.889 36.8788V16.4623H241.323V14.8673H252.062V40.5155H254.955ZM252.769 5.93507C252.769 6.57308 252.64 7.16856 252.383 7.72151C251.655 9.16768 250.433 9.89076 248.718 9.89076C248.118 9.89076 247.539 9.76316 246.982 9.50795C245.482 8.8274 244.731 7.63644 244.731 5.93507C244.731 5.29705 244.881 4.6803 245.182 4.08482C245.91 2.63865 247.089 1.91557 248.718 1.91557C249.361 1.91557 249.983 2.06444 250.583 2.36218C252.04 3.1278 252.769 4.31876 252.769 5.93507Z" fill="#7A9E7E"/>
<path d="M272.767 40.5155C273.067 40.5155 273.324 40.5368 273.538 40.5793C274.096 40.6644 274.374 41.1748 274.374 42.1106H259.842V40.5155C260.914 40.5155 261.75 40.4305 262.35 40.2603C263.593 39.92 264.215 38.7929 264.215 36.8788V16.4623H259.842V14.8673H270.002L270.323 20.6094C270.752 19.6311 271.309 18.7166 271.995 17.866C274.139 15.3564 276.796 14.1017 279.969 14.1017C281.469 14.1017 282.841 14.4419 284.084 15.1225C287.256 16.7813 288.842 19.8863 288.842 24.4375V40.5155H291.607C291.907 40.5155 292.164 40.5368 292.379 40.5793C292.936 40.6644 293.215 41.1748 293.215 42.1106H278.554V40.5155C279.626 40.5155 280.462 40.4305 281.062 40.2603C282.091 39.8775 282.605 38.7503 282.605 36.8788V23.6081C282.605 22.6723 282.498 21.7791 282.283 20.9284C281.555 18.3764 279.904 17.1003 277.332 17.1003C276.389 17.1003 275.468 17.3555 274.567 17.866C272.124 19.2696 270.752 21.6941 270.452 25.1393L270.388 40.5155H272.767Z" fill="#7A9E7E"/>
<path d="M310.705 15.6967C309.89 15.6967 309.14 15.8456 308.454 16.1433C305.453 17.4619 303.867 20.8434 303.696 26.2878L309.419 26.4154C311.219 26.5004 312.612 26.4154 313.598 26.1602C315.356 25.6923 316.235 24.4163 316.235 22.3321C316.235 21.4814 316.127 20.652 315.913 19.8438C315.184 17.0791 313.448 15.6967 310.705 15.6967ZM322.215 35.7942C321.957 36.3897 321.657 36.9852 321.314 37.5806C319.171 41.0259 315.677 42.7486 310.833 42.7486C307.961 42.7486 305.389 42.068 303.117 40.7069C298.959 38.2399 296.88 34.1779 296.88 28.5208C296.88 25.2457 297.673 22.3746 299.259 19.9076C301.745 16.037 305.539 14.1017 310.64 14.1017C313.341 14.1017 315.763 14.6546 317.906 15.7605C321.122 17.4194 322.729 19.8438 322.729 23.0339C322.729 24.2674 322.386 25.2882 321.7 26.0964C320.243 27.6276 316.578 28.3294 310.705 28.2018L303.696 28.0742C303.696 28.1167 303.696 28.1593 303.696 28.2018C303.91 36.7087 306.697 40.9621 312.055 40.9621C312.741 40.9621 313.427 40.8771 314.113 40.7069C317.071 40.0264 319.257 38.2187 320.671 35.2838L322.215 35.7942Z" fill="#7A9E7E"/>
<path d="M237.465 46.2577C237.465 42.4256 235.373 40.1899 231.189 39.5512L230.778 39.4947C230.328 39.4309 229.89 39.3911 229.464 39.3751L229.042 39.3671L216.696 39.1119C214.981 38.9843 214.103 38.2399 214.06 36.8788C214.06 35.858 214.681 35.22 215.924 34.9648C216.224 34.9223 216.503 34.901 216.76 34.901L222.74 34.9648H222.933C226.961 34.9648 230.145 33.6476 232.483 31.0131L232.707 30.7539C234.207 28.8824 234.958 26.7344 234.958 24.3099C234.915 21.0773 233.693 18.5252 231.292 16.6537C231.893 15.2076 232.793 14.4632 233.993 14.4207C234.55 14.4207 235.215 14.761 235.986 15.4415C236.469 15.8802 236.932 16.1134 237.377 16.1408L237.465 16.1433C238.623 16.1433 239.309 15.5691 239.523 14.4207C239.555 14.293 239.575 14.1773 239.584 14.0735L239.587 13.9741C239.587 12.5704 238.901 11.5921 237.53 11.0392C237.042 10.8531 236.538 10.7486 236.018 10.7253L235.794 10.7202C233.736 10.7202 232.085 11.7197 230.842 13.7189C230.457 14.3569 230.156 15.0374 229.942 15.7605C227.927 14.6546 225.655 14.1017 223.126 14.1017C218.797 14.1017 215.474 15.484 213.159 18.2488L212.895 18.5796C211.614 20.2518 210.973 22.2046 210.973 24.4375L210.978 24.7314C211.071 27.7522 212.613 30.3339 215.603 32.4765C215.989 32.7743 216.374 33.0295 216.76 33.2421C214.231 33.2421 212.559 34.3693 211.745 36.6236C211.488 37.3042 211.359 38.006 211.359 38.7291C211.402 40.8983 212.259 42.5784 213.931 43.7694C212.645 45.1305 212.002 46.5341 212.002 47.9803L212.006 48.1981C212.093 50.4282 213.528 52.0995 216.31 53.212C218.119 53.9298 220.266 54.3112 222.753 54.3561L223.255 54.3605C229.985 54.3605 234.379 52.7654 236.437 49.5753C237.079 48.6184 237.421 47.5864 237.461 46.4799L237.465 46.2577ZM233.736 47.9801C233.736 47.6701 233.684 47.3852 233.584 47.1207L233.581 47.1126L233.578 47.1045C233.449 46.734 233.109 46.3792 232.36 46.1096C231.603 45.8375 230.509 45.6849 229.042 45.6849H229.034L217.846 45.5575C217.099 45.5569 216.389 45.4639 215.718 45.2789C215.148 46.0919 214.866 46.8881 214.832 47.6722C214.833 48.0622 214.912 48.44 215.074 48.8101L215.149 48.97L215.151 48.9744L215.153 48.9781C216.093 50.9143 218.621 52.0621 223.255 52.0621L223.255 52.7016L222.822 52.6985C218.546 52.6313 215.833 51.5543 214.684 49.4684L214.574 49.2563C214.349 48.8098 214.222 48.3468 214.194 47.8677L214.188 47.6613C214.231 46.5979 214.66 45.5558 215.474 44.535C216.203 44.7902 216.996 44.9178 217.853 44.9178L229.042 45.0454C232.043 45.0454 233.757 45.6622 234.186 46.8957C234.315 47.236 234.379 47.5975 234.379 47.9803L234.373 48.1581C234.263 49.9802 232.443 51.3033 228.913 52.1274C227.199 52.5102 225.312 52.7016 223.255 52.7016L223.255 52.0621C225.147 52.0621 226.881 51.8969 228.459 51.5706L228.773 51.5032C230.552 51.0872 231.816 50.5562 232.622 49.9443C233.408 49.3482 233.736 48.6986 233.736 47.9801ZM90.5366 27.8828C90.5366 23.103 89.189 19.4208 86.4936 16.8365L86.2284 16.5899C84.3596 14.9829 82.1891 14.1543 79.7169 14.1041L79.4767 14.1017C74.7613 14.1017 71.3533 16.3985 69.2528 20.9922C69.2099 21.0773 69.1885 21.1411 69.1885 21.1836V0.639535H58.6431V2.29838H63.0156V36.815L63.0086 37.1574C62.9383 38.8245 62.3402 39.8376 61.2151 40.1965L60.978 40.2563C60.3966 40.3866 59.6182 40.4517 58.6431 40.4517V42.1106H67.5167L68.0311 37.7721C70.066 40.9449 73.0262 42.6005 76.9118 42.7395L77.2905 42.7486C81.111 42.7486 84.2676 41.3712 86.7605 38.6169L87 38.3463C89.284 35.668 90.4615 32.3111 90.5329 28.2757L90.5366 27.8828ZM169.127 29.6678L168.842 42.7502H136.898V39.8123H142.042V6.12804H136.898V3.19018H168.842L169.127 16.2725H166.523L165.221 12.2561C165.175 12.1169 165.13 11.9608 165.087 11.7908C164.466 9.82709 163.613 8.41729 162.564 7.50017C161.524 6.59136 160.248 6.12804 158.696 6.12804H150.208V20.7992H163.133V23.9288H150.208V39.8123H158.696L158.696 40.4517H149.565V23.2891H162.49V21.4388H149.565V5.48845H158.696C162.083 5.48845 164.419 7.53011 165.705 11.6134C165.748 11.7835 165.791 11.9324 165.834 12.06L166.991 15.6329H168.47L168.213 3.82961H137.541V5.48845H142.685V40.4517H137.541V42.1106H168.213L168.47 30.3073H166.991L165.834 33.8802C164.676 37.6657 162.79 39.8137 160.175 40.3241L159.818 40.38C159.456 40.4279 159.082 40.4517 158.696 40.4517L158.696 39.8123C159.174 39.8123 159.629 39.7726 160.06 39.6949C162.333 39.2473 164.094 37.3721 165.218 33.6942L165.22 33.6892L165.221 33.6843L166.523 29.6678H169.127ZM186.153 39.876C186.469 39.876 186.761 39.898 187.022 39.9472C187.029 39.9483 187.036 39.9498 187.043 39.9509C187.045 39.9514 187.048 39.9517 187.05 39.9522C187.523 40.0325 187.89 40.3056 188.116 40.721C188.329 41.1104 188.403 41.5945 188.403 42.1106V42.7502H172.585V39.876H173.228C174.276 39.876 175.044 39.7919 175.56 39.6455L175.566 39.6437C176.019 39.5196 176.343 39.2646 176.57 38.8524C176.81 38.418 176.957 37.7769 176.957 36.8788V17.1019H172.585V14.2278H183.996L184.226 18.351C184.431 18.0492 184.647 17.7536 184.879 17.466L184.885 17.4592L184.891 17.4517C187.15 14.8064 189.985 13.4621 193.355 13.4621C194.953 13.4621 196.428 13.8249 197.769 14.5563C201.213 16.3576 202.871 19.7261 202.871 24.4372V39.876H204.993L204.993 40.5155H202.228V24.4375C202.228 20.0288 200.74 16.9765 197.763 15.282L197.47 15.1225C196.304 14.4845 195.026 14.1452 193.634 14.1054L193.355 14.1017C190.182 14.1017 187.525 15.3564 185.381 17.866C184.695 18.7166 184.138 19.6311 183.709 20.6094L183.388 14.8673H173.228V16.4623H177.601V36.8788C177.601 38.7929 176.979 39.92 175.736 40.2603C175.136 40.4305 174.3 40.5155 173.228 40.5155V42.1106H187.76C187.76 41.1748 187.482 40.6644 186.924 40.5793C186.764 40.5474 186.579 40.5272 186.37 40.5193L186.153 40.5155L186.153 39.876ZM204.993 39.876C205.309 39.876 205.601 39.898 205.862 39.9472C205.869 39.9483 205.876 39.9498 205.883 39.9509C205.886 39.9514 205.888 39.9517 205.891 39.9522C206.363 40.0324 206.73 40.3056 206.957 40.721C207.17 41.1104 207.244 41.5946 207.244 42.1106V42.7502H191.296V39.876H191.94C192.967 39.876 193.725 39.7941 194.24 39.653C194.857 39.4128 195.348 38.6759 195.348 36.8788V23.6078C195.348 22.7246 195.247 21.8871 195.048 21.0934C194.71 19.9172 194.179 19.0945 193.49 18.5621C192.802 18.03 191.895 17.7396 190.718 17.7396C189.898 17.7396 189.085 17.9608 188.272 18.4216C186.059 19.6941 184.77 21.8962 184.48 25.1767L184.419 39.876H186.153L186.153 40.5155H183.774L183.838 25.1393C184.138 21.6941 185.51 19.2696 187.953 17.866C188.853 17.3555 189.775 17.1003 190.718 17.1003C193.29 17.1003 194.941 18.3764 195.669 20.9284C195.884 21.7791 195.991 22.6723 195.991 23.6081V36.8788L195.985 37.2211C195.924 38.8883 195.412 39.9014 194.448 40.2603C193.848 40.4305 193.012 40.5155 191.94 40.5155V42.1106H206.601C206.601 41.1748 206.322 40.6644 205.765 40.5793C205.604 40.5474 205.419 40.5273 205.21 40.5193L204.993 40.5155L204.993 39.876ZM272.767 39.876C273.083 39.876 273.375 39.898 273.636 39.9472C273.642 39.9482 273.649 39.9493 273.655 39.9503C273.658 39.9509 273.662 39.9516 273.665 39.9522C274.137 40.0325 274.504 40.3057 274.731 40.721C274.943 41.1104 275.018 41.5945 275.018 42.1106V42.7502H259.199V39.876H259.842C260.89 39.876 261.657 39.7918 262.173 39.6455L262.179 39.6437C262.632 39.5196 262.957 39.2647 263.185 38.8524C263.424 38.418 263.572 37.7769 263.572 36.8788V17.1019H259.199V14.2278H270.61L270.841 18.3504C271.045 18.0487 271.262 17.7535 271.493 17.466L271.499 17.4592L271.505 17.4517C273.765 14.8065 276.598 13.4622 279.968 13.4621C281.566 13.4621 283.042 13.8249 284.383 14.5563C287.827 16.3576 289.485 19.7261 289.485 24.4372V39.876H291.607L291.607 40.5155H288.842V24.4375C288.842 20.0286 287.354 16.9765 284.376 15.282L284.084 15.1225C282.841 14.4419 281.469 14.1017 279.969 14.1017C276.796 14.1017 274.139 15.3564 271.995 17.866C271.309 18.7166 270.752 19.6311 270.323 20.6094L270.002 14.8673H259.842V16.4623H264.215V36.8788C264.215 38.7929 263.593 39.92 262.35 40.2603C261.75 40.4305 260.914 40.5155 259.842 40.5155V42.1106H274.374C274.374 41.1748 274.096 40.6644 273.538 40.5793C273.378 40.5474 273.193 40.5273 272.984 40.5193L272.767 40.5155L272.767 39.876ZM291.607 39.876C291.923 39.876 292.215 39.898 292.476 39.9472C292.483 39.9483 292.49 39.9498 292.497 39.9509C292.5 39.9514 292.502 39.9517 292.505 39.9522C292.977 40.0325 293.344 40.3056 293.571 40.721C293.784 41.1103 293.858 41.5946 293.858 42.1106V42.7502H277.911V39.876H278.554C279.582 39.876 280.339 39.7941 280.855 39.653C281.471 39.4128 281.962 38.6758 281.962 36.8788V23.6078C281.962 22.7246 281.861 21.8871 281.662 21.0934C281.324 19.9172 280.793 19.0946 280.104 18.5621C279.416 18.0301 278.509 17.7396 277.332 17.7396C276.512 17.7396 275.699 17.9607 274.886 18.4216C272.675 19.6932 271.386 21.8933 271.095 25.1698L271.033 39.876H272.767L272.767 40.5155H270.388L270.452 25.1393C270.752 21.6941 272.124 19.2696 274.567 17.866C275.468 17.3555 276.389 17.1003 277.332 17.1003C279.904 17.1003 281.555 18.3764 282.283 20.9284C282.498 21.7791 282.605 22.6723 282.605 23.6081V36.8788L282.599 37.2211C282.539 38.8882 282.026 39.9014 281.062 40.2603L280.826 40.3201C280.249 40.4503 279.492 40.5155 278.554 40.5155V42.1106H293.215C293.215 41.1748 292.936 40.6644 292.379 40.5793C292.218 40.5475 292.033 40.5273 291.824 40.5193L291.607 40.5155L291.607 39.876ZM83.0773 28.5211C83.0773 27.2701 83.0145 26.0847 82.8895 24.965L82.8229 24.4816C82.467 22.1091 81.8043 20.3891 80.8883 19.2554C79.9354 18.0758 78.6721 17.4848 77.033 17.4848C75.6947 17.4848 74.491 17.9352 73.4007 18.8625C71.0795 20.897 69.8318 24.4541 69.8318 29.7328C69.8318 31.8967 70.0835 33.7895 70.5761 35.4186C71.1313 37.1698 71.9033 38.4207 72.8548 39.2327C73.7971 40.0367 74.9618 40.45 76.3905 40.45L76.3903 41.0897L76.0996 41.0845C73.1279 40.9737 71.0814 39.1464 69.9601 35.6028C69.4779 34.0078 69.2219 32.1885 69.1917 30.145L69.1885 29.7331C69.1885 24.3737 70.4531 20.5882 72.9823 18.3764C74.1826 17.3555 75.5329 16.8451 77.0333 16.8451L77.3703 16.8527C80.8108 17.0149 82.8633 19.6921 83.5277 24.8841C83.6563 26.0326 83.7206 27.2448 83.7206 28.5208L83.7161 29.1238C83.6187 35.2761 82.0126 39.0734 78.898 40.5155C78.1264 40.8983 77.2905 41.0897 76.3903 41.0897L76.3905 40.45C77.1954 40.4499 77.9324 40.28 78.6108 39.9435L78.6184 39.9397L78.6265 39.936C81.4686 38.62 83.0772 34.9959 83.0773 28.5211ZM120.951 23.0339C120.951 19.8438 119.344 17.4194 116.129 15.7605C113.985 14.6546 111.563 14.1017 108.862 14.1017C103.761 14.1017 99.9675 16.037 97.4811 19.9076C95.895 22.3746 95.102 25.2457 95.102 28.5208L95.1081 29.0464C95.2339 34.4302 97.311 38.317 101.339 40.7069C103.611 42.068 106.183 42.7486 109.055 42.7486C113.748 42.7486 117.174 41.132 119.332 37.8987L119.537 37.5806C119.879 36.9852 120.18 36.3897 120.437 35.7942L118.894 35.2838C117.479 38.2187 115.293 40.0264 112.335 40.7069C111.649 40.8771 110.963 40.9621 110.277 40.9621L110.277 40.3225C110.909 40.3225 111.542 40.2443 112.179 40.0865L112.19 40.084C114.941 39.451 116.976 37.7827 118.314 35.0077L118.558 34.4993L119.097 34.6767L121.304 35.4068L121.028 36.0463C120.76 36.6654 120.449 37.2833 120.095 37.8987L120.089 37.9081L120.084 37.9168C117.799 41.5887 114.073 43.3878 109.055 43.3878C106.076 43.3878 103.388 42.681 101.007 41.255C96.6193 38.6505 94.4587 34.3556 94.4586 28.5211C94.4586 25.1389 95.2792 22.145 96.939 19.5633L97.1884 19.1873C99.8092 15.3625 103.734 13.4621 108.862 13.4621C111.654 13.4621 114.18 14.0342 116.425 15.1927C118.107 16.0605 119.406 17.1482 120.283 18.4709C121.162 19.7979 121.594 21.3265 121.594 23.0339C121.594 24.3919 121.214 25.5666 120.414 26.5088L120.402 26.5226L120.389 26.5357C119.521 27.4481 118.078 28.0401 116.202 28.3993C114.307 28.7621 111.873 28.9051 108.915 28.8409L102.579 28.7254C102.733 32.6539 103.466 35.5274 104.707 37.4228C105.975 39.3577 107.802 40.3225 110.277 40.3225L110.277 40.9621C104.919 40.9621 102.132 36.7087 101.918 28.2018V28.0742L108.927 28.2018C114.616 28.3254 118.234 27.6709 119.78 26.2378L119.922 26.0964C120.608 25.2882 120.951 24.2674 120.951 23.0339ZM322.729 23.0339C322.729 19.9435 321.22 17.5718 318.203 15.9184L317.906 15.7605C315.763 14.6546 313.341 14.1017 310.64 14.1017C305.539 14.1017 301.745 16.037 299.259 19.9076C297.673 22.3746 296.88 25.2457 296.88 28.5208L296.886 29.0464C297.012 34.4301 299.089 38.317 303.117 40.7069C305.247 41.983 307.641 42.6611 310.298 42.7408L310.833 42.7486C315.526 42.7485 318.951 41.1319 321.109 37.8987L321.314 37.5806C321.657 36.9852 321.957 36.3897 322.215 35.7942L320.671 35.2838C319.257 38.2187 317.071 40.0264 314.113 40.7069C313.427 40.8771 312.741 40.9621 312.055 40.9621L312.055 40.3225C312.687 40.3225 313.321 40.2444 313.957 40.0865L313.962 40.0852L313.968 40.084C316.719 39.451 318.754 37.7828 320.091 35.0077L320.336 34.4993L320.874 34.6767L323.082 35.4068L322.806 36.0463C322.538 36.6654 322.227 37.2833 321.873 37.8987L321.867 37.9081L321.861 37.9168C319.577 41.5886 315.851 43.3878 310.834 43.3878C307.854 43.3878 305.165 42.6811 302.785 41.255C298.397 38.6505 296.237 34.3555 296.237 28.5211C296.237 25.139 297.057 22.145 298.717 19.5633C301.335 15.4871 305.347 13.4622 310.64 13.4621C313.431 13.4621 315.957 14.0343 318.202 15.1927C319.884 16.0605 321.183 17.1482 322.06 18.4709C322.94 19.7979 323.372 21.3265 323.372 23.0339C323.372 24.3919 322.991 25.5666 322.192 26.5088L322.18 26.5226L322.167 26.5357C321.299 27.448 319.856 28.0401 317.98 28.3993C316.085 28.7621 313.651 28.9051 310.693 28.8409L304.357 28.7254C304.511 32.6538 305.244 35.5274 306.485 37.4228C307.753 39.3578 309.581 40.3225 312.055 40.3225L312.055 40.9621L311.806 40.959C306.61 40.8282 303.907 36.5757 303.696 28.2018V28.0742L310.705 28.2018C316.394 28.3254 320.012 27.6709 321.557 26.2378L321.7 26.0964C322.343 25.3387 322.685 24.394 322.725 23.2625L322.729 23.0339ZM252.062 14.8673H241.323V16.4623H245.889V36.8788L245.881 37.2286C245.801 38.9333 245.117 39.9652 243.831 40.3241C243.231 40.4517 242.395 40.5155 241.323 40.5155V42.1106H256.563C256.563 41.1748 256.284 40.6644 255.727 40.5793C255.566 40.5474 255.381 40.5273 255.173 40.5193L254.955 40.5155L254.955 39.876C255.271 39.876 255.563 39.898 255.824 39.9472C255.831 39.9483 255.838 39.9498 255.845 39.9509C255.848 39.9514 255.85 39.9517 255.853 39.9522C256.325 40.0324 256.692 40.3056 256.919 40.721C257.132 41.1104 257.206 41.5946 257.206 42.1106V42.7502H240.68V39.876H241.323C242.364 39.876 243.141 39.8133 243.675 39.7024C244.203 39.5511 244.571 39.2683 244.821 38.8492C245.085 38.4077 245.246 37.7679 245.246 36.8788V17.1019H240.68V14.2278H252.705V39.876H254.955L254.955 40.5155H252.062V14.8673ZM51.1841 14.8673H40.4458V16.4623H45.0112V36.8788L45.0033 37.2286C44.923 38.9333 44.2395 39.9652 42.9535 40.3241C42.3534 40.4517 41.5175 40.5155 40.4458 40.5155V42.1106H55.6852C55.6852 41.1748 55.4066 40.6644 54.8493 40.5793C54.6886 40.5474 54.5038 40.5273 54.2949 40.5193L54.0777 40.5155L54.0776 39.876C54.3938 39.876 54.6856 39.898 54.9462 39.9472C54.9532 39.9483 54.9607 39.9498 54.9676 39.9509C54.9701 39.9514 54.9726 39.9517 54.9751 39.9522C55.4474 40.0324 55.8149 40.3056 56.0417 40.721C56.2541 41.1104 56.3287 41.5946 56.3287 42.1106V42.7502H39.8026V39.876H40.4457C41.4871 39.876 42.2642 39.8135 42.7986 39.7024C43.3258 39.551 43.6936 39.268 43.9437 38.8492C44.2074 38.4077 44.3683 37.7679 44.3683 36.8788V17.1019H39.8026V14.2278H51.8271V39.876H54.0776L54.0777 40.5155H51.1841V14.8673ZM16.3327 5.48845V3.82961H0.643182V5.48845H4.24406L16.7185 37.5168C17.7045 40.0689 18.4975 41.5576 19.0977 41.983C19.5103 42.2434 20.0705 42.3903 20.7784 42.4229L21.091 42.4296H22.0556L35.4303 5.48845H38.6453V3.82961H27.7784V5.48845H32.9225L22.57 34.4544L11.1886 5.48845H16.3327ZM227.948 24.3735C227.948 22.8696 227.843 21.5935 227.639 20.5388L227.638 20.5338L227.637 20.5288C227.374 19.0457 226.843 18.0146 226.104 17.3524C225.371 16.6959 224.359 16.3363 222.998 16.3362C222.209 16.3362 221.518 16.4529 220.918 16.6747C220.008 17.041 219.281 17.8034 218.772 19.0755C218.257 20.3631 217.982 22.1387 217.982 24.4372C217.982 25.9426 218.066 27.2008 218.23 28.2182C218.515 29.7922 219.065 30.8905 219.821 31.5951C220.567 32.2907 221.581 32.6662 222.933 32.6662L222.933 33.3059C219.975 33.3059 218.196 31.6471 217.596 28.3294C217.446 27.3989 217.362 26.2893 217.343 25.0006L217.339 24.4375C217.339 19.7587 218.454 16.9727 220.683 16.0795C221.369 15.8243 222.14 15.6967 222.998 15.6967L223.272 15.7011C226.064 15.7964 227.73 17.3689 228.27 20.418C228.485 21.5239 228.592 22.8425 228.592 24.3737C228.592 29.0525 227.542 31.881 225.441 32.8593C224.712 33.1571 223.876 33.3059 222.933 33.3059L222.933 32.6662C223.802 32.6662 224.548 32.5297 225.183 32.2728C226.03 31.8727 226.719 31.0819 227.201 29.7827C227.689 28.4674 227.948 26.6743 227.948 24.3735ZM113.814 22.3319C113.814 21.5353 113.713 20.7606 113.514 20.0067L113.513 20.0061C113.173 18.7177 112.617 17.8156 111.885 17.2325C111.156 16.6518 110.188 16.3363 108.927 16.3362C108.193 16.3362 107.531 16.4702 106.933 16.7297C104.395 17.8467 102.859 20.6899 102.589 25.6626L107.655 25.7763H107.671C109.338 25.855 110.599 25.7824 111.486 25.5826L111.658 25.5414C112.413 25.3397 112.929 24.9811 113.267 24.4909C113.611 23.9906 113.814 23.2889 113.814 22.3319ZM315.591 22.3319C315.591 21.5353 315.491 20.7606 315.291 20.0067C314.952 18.7183 314.395 17.8156 313.663 17.2325C312.933 16.6518 311.965 16.3363 310.705 16.3362C309.971 16.3362 309.31 16.4703 308.712 16.7297C306.173 17.8466 304.637 20.6897 304.367 25.6626L309.433 25.7763H309.449C311.226 25.8602 312.544 25.7725 313.436 25.5414C314.191 25.3397 314.707 24.9811 315.045 24.4909C315.39 23.9906 315.591 23.2889 315.591 22.3319ZM51.8914 5.93507C51.8914 4.41972 51.2508 3.27829 49.9697 2.51067L49.7052 2.36218C49.18 2.10163 48.6384 1.9549 48.0804 1.92235L47.8404 1.91557C46.2115 1.91557 45.0326 2.63865 44.3039 4.08482C44.0038 4.6803 43.8537 5.29705 43.8537 5.93507L43.8626 6.24796C43.9505 7.78325 44.6977 8.86992 46.1043 9.50795C46.5918 9.73121 47.0959 9.85676 47.6162 9.88469L47.8404 9.89076C49.5551 9.89076 50.7769 9.16768 51.5056 7.72151C51.7628 7.16856 51.8914 6.57308 51.8914 5.93507ZM252.769 5.93507C252.769 4.41971 252.128 3.27829 250.847 2.51067L250.583 2.36218C249.983 2.06444 249.361 1.91557 248.718 1.91557C247.089 1.91557 245.91 2.63865 245.182 4.08482L245.076 4.30937C244.847 4.83503 244.731 5.37684 244.731 5.93507L244.74 6.24796C244.828 7.78325 245.575 8.86992 246.982 9.50795C247.47 9.73121 247.974 9.85675 248.494 9.88469L248.718 9.89076C250.433 9.89076 251.655 9.16768 252.383 7.72151C252.608 7.23774 252.735 6.72128 252.763 6.17239L252.769 5.93507ZM114.454 22.5249C114.401 24.4951 113.523 25.7069 111.82 26.1602L111.63 26.2059C110.658 26.4252 109.329 26.4951 107.641 26.4154L101.918 26.2878C102.089 20.8434 103.676 17.4619 106.676 16.1433C107.362 15.8456 108.112 15.6967 108.927 15.6967L109.181 15.7005C111.778 15.7841 113.429 17.1654 114.135 19.8438C114.35 20.652 114.457 21.4814 114.457 22.3321L114.454 22.5249ZM316.232 22.5249C316.179 24.4951 315.301 25.7069 313.598 26.1602L313.409 26.2059C312.437 26.4253 311.107 26.4951 309.419 26.4154L303.696 26.2878C303.867 20.8434 305.453 17.4619 308.454 16.1433C309.14 15.8456 309.89 15.6967 310.705 15.6967L310.959 15.7005C313.556 15.7842 315.207 17.1656 315.913 19.8438C316.127 20.652 316.235 21.4814 316.235 22.3321L316.232 22.5249ZM240.23 13.9742C240.23 14.1696 240.198 14.3729 240.147 14.5763C240.018 15.2338 239.74 15.8013 239.262 16.202C238.773 16.6114 238.151 16.7828 237.466 16.7828C236.771 16.7828 236.13 16.4385 235.552 15.9134C234.819 15.2683 234.311 15.0631 234 15.0603C233.242 15.0925 232.594 15.4923 232.084 16.4736C234.387 18.4416 235.558 21.0701 235.601 24.3017V24.3098C235.601 26.877 234.802 29.166 233.21 31.1523L233.206 31.158L233.201 31.1636C230.704 34.1364 227.254 35.6041 222.933 35.6041H222.733L216.758 35.5404C216.543 35.5405 216.303 35.558 216.037 35.5947C215.501 35.7071 215.177 35.8861 214.988 36.0794C214.812 36.2599 214.704 36.5044 214.703 36.8713C214.722 37.401 214.894 37.7396 215.168 37.9711C215.463 38.2211 215.957 38.4137 216.737 38.4726L229.055 38.7275C229.638 38.7281 230.238 38.7726 230.857 38.8599C233.172 39.147 235.001 39.887 236.252 41.1519C237.513 42.427 238.109 44.1564 238.109 46.2576C238.109 47.5751 237.727 48.8002 236.977 49.9199L236.978 49.9206C234.734 53.3996 230.038 55 223.255 55C220.496 55 218.095 54.6091 216.072 53.8059L216.07 53.8052C214.569 53.2049 213.388 52.4283 212.581 51.4482C211.765 50.4574 211.359 49.2914 211.359 47.9801C211.359 46.525 211.932 45.147 213.001 43.8525C211.519 42.5704 210.757 40.8493 210.716 38.7418V38.7293C210.716 37.929 210.859 37.1506 211.143 36.3985C211.587 35.1734 212.282 34.2099 213.249 33.5581C213.763 33.2114 214.339 32.9638 214.97 32.8074C211.922 30.536 210.33 27.7417 210.33 24.4372C210.33 21.9143 211.107 19.7043 212.665 17.8395C215.127 14.9 218.647 13.4621 223.126 13.4621C225.476 13.4621 227.628 13.9238 229.573 14.8536C229.77 14.3448 230.009 13.8561 230.291 13.389L230.295 13.3828C231.635 11.2283 233.476 10.0808 235.794 10.0808C236.387 10.0808 236.964 10.173 237.522 10.3575L237.76 10.4424L237.766 10.4443L237.771 10.4468C238.546 10.7588 239.171 11.2099 239.6 11.822C240.031 12.4364 240.23 13.1654 240.23 13.9742ZM52.5343 5.93506C52.5343 6.66122 52.3877 7.3488 52.0896 7.98981L52.0852 7.99918L52.0808 8.00793C51.6695 8.82409 51.1028 9.46511 50.3717 9.8978C49.6426 10.3293 48.7897 10.5305 47.8405 10.5305C47.1454 10.5305 46.4752 10.3818 45.8355 10.0889C44.9913 9.7056 44.3236 9.16159 43.8714 8.44386C43.4199 7.72702 43.2107 6.88037 43.2107 5.93506C43.2107 5.19321 43.386 4.47883 43.7289 3.79849C44.1373 2.988 44.6894 2.34769 45.3971 1.91361C46.1047 1.47963 46.928 1.27595 47.8405 1.27595C48.494 1.27595 49.1266 1.40903 49.7336 1.67004L49.9923 1.78995L49.9993 1.79307L50.0055 1.79682C50.8187 2.22397 51.4597 2.78722 51.8943 3.49746C52.3291 4.20814 52.5343 5.02872 52.5343 5.93506ZM253.413 5.93506C253.413 6.66123 253.265 7.3488 252.967 7.98981L252.963 7.99918L252.958 8.00793C252.547 8.8241 251.98 9.46511 251.249 9.8978C250.52 10.3293 249.667 10.5305 248.718 10.5305C248.023 10.5305 247.353 10.3818 246.713 10.0889C245.869 9.7056 245.201 9.16159 244.749 8.44386C244.298 7.72702 244.088 6.88037 244.088 5.93506C244.088 5.19321 244.264 4.47882 244.606 3.79849C245.015 2.988 245.567 2.34769 246.275 1.91361C246.982 1.47962 247.806 1.27595 248.718 1.27595C249.372 1.27595 250.004 1.40904 250.611 1.67004L250.87 1.78995L250.877 1.79307L250.883 1.79682C251.696 2.22397 252.337 2.78722 252.772 3.49746C253.207 4.20815 253.413 5.02871 253.413 5.93506ZM39.2888 6.12804H35.8819L22.5076 43.0693H21.0912C20.1722 43.0693 19.3687 42.9117 18.7528 42.5228L18.7383 42.5135L18.7245 42.5035C18.2896 42.1952 17.8822 41.5929 17.4846 40.8465C17.071 40.07 16.6152 39.0335 16.1179 37.7463L3.80319 6.12804H0V3.19018H16.9759V6.12804H12.1306L22.5409 32.6238L32.0109 6.12804H27.1355V3.19018H39.2888V6.12804ZM69.8318 18.6021C70.7267 17.2346 71.7881 16.1276 73.0232 15.2951C74.8486 14.0649 77.0099 13.4621 79.477 13.4621C82.1168 13.4621 84.4516 14.2919 86.4559 15.944L86.6493 16.1064L86.6606 16.1164C89.7022 18.864 91.1799 22.8221 91.1799 27.8828C91.1799 32.2194 89.9622 35.8614 87.4904 38.7599L87.4885 38.7624C84.8351 41.8415 81.419 43.3878 77.2905 43.3878H77.2836C73.5994 43.3493 70.6471 42.0374 68.4782 39.4607L68.0888 42.7502H58.0001V39.8123H58.6433C59.7302 39.8123 60.5141 39.7273 61.0288 39.5831C61.4605 39.4428 61.7755 39.1803 61.9967 38.7649C62.2301 38.3266 62.3723 37.6917 62.3724 36.8151V2.93786H58.0001V0H69.8318V18.6021Z" fill="var(--fill-0, black)"/>
<path d="M337.275 25.0651C337.275 14.4468 345.648 5.83899 355.977 5.83899C366.305 5.83899 374.678 14.4468 374.678 25.0651C374.678 35.6833 366.305 44.2911 355.977 44.2911C345.648 44.2911 337.275 35.6833 337.275 25.0651Z" fill="#7A9E7E"/>
<path d="M337.596 25.0651C337.596 35.5168 345.836 43.9713 355.977 43.9714C366.118 43.9714 374.357 35.5169 374.357 25.0651C374.357 14.6133 366.118 6.15886 355.977 6.15885C345.836 6.15894 337.596 14.6134 337.596 25.0651ZM336.953 25.0651C336.953 14.2804 345.46 5.5194 355.977 5.51932C366.493 5.51932 375 14.2804 375 25.0651C375 35.8498 366.493 44.6109 355.977 44.6109C345.46 44.6108 336.953 35.8498 336.953 25.0651Z" fill="var(--fill-0, black)"/>
<path d="M337.275 25.0651C337.275 14.4468 345.648 5.83899 355.977 5.83899C366.305 5.83899 374.678 14.4468 374.678 25.0651C374.678 35.6833 366.305 44.2911 355.977 44.2911C345.648 44.2911 337.275 35.6833 337.275 25.0651Z" fill="#7A9E7E"/>
<path d="M337.596 25.0651C337.596 35.5168 345.836 43.9713 355.977 43.9714C366.118 43.9714 374.357 35.5169 374.357 25.0651C374.357 14.6133 366.118 6.15886 355.977 6.15885C345.836 6.15894 337.596 14.6134 337.596 25.0651ZM336.953 25.0651C336.953 14.2804 345.46 5.5194 355.977 5.51932C366.493 5.51932 375 14.2804 375 25.0651C375 35.8498 366.493 44.6109 355.977 44.6109C345.46 44.6108 336.953 35.8498 336.953 25.0651Z" fill="var(--fill-0, black)"/>
<path d="M340.442 25.065C340.442 14.4467 347.396 5.83893 355.974 5.83893C364.552 5.83893 371.506 14.4467 371.506 25.065C371.506 35.6833 364.552 44.2911 355.974 44.2911C347.396 44.2911 340.442 35.6833 340.442 25.065Z" fill="#7A9E7E"/>
<path d="M340.764 25.065C340.764 35.5756 347.636 43.9713 355.974 43.9713C364.313 43.9712 371.185 35.5756 371.185 25.065C371.185 14.5545 364.313 6.15888 355.974 6.1588C347.636 6.1588 340.764 14.5544 340.764 25.065ZM340.121 25.065C340.121 14.3391 347.157 5.51926 355.974 5.51926C364.792 5.51934 371.828 14.3392 371.828 25.065C371.828 35.7909 364.792 44.6108 355.974 44.6108C347.157 44.6108 340.121 35.7909 340.121 25.065Z" fill="var(--fill-0, black)"/>
<path d="M345.2 25.065C345.2 14.4467 350.025 5.83899 355.977 5.83899C361.929 5.83899 366.754 14.4467 366.754 25.065C366.754 35.6833 361.929 44.2911 355.977 44.2911C350.025 44.2911 345.2 35.6833 345.2 25.065Z" fill="#7A9E7E"/>
<path d="M345.521 25.065C345.521 30.33 346.718 35.0808 348.637 38.504C350.562 41.9379 353.17 43.9713 355.977 43.9713C358.784 43.9712 361.392 41.9378 363.317 38.504C365.236 35.0808 366.433 30.3301 366.433 25.065C366.433 19.8 365.235 15.0493 363.317 11.6261C361.392 8.19227 358.784 6.1589 355.977 6.1588C353.17 6.1588 350.562 8.19218 348.637 11.6261C346.718 15.0493 345.521 19.8001 345.521 25.065ZM344.878 25.065C344.878 19.7119 346.094 14.8496 348.076 11.3144C350.051 7.7899 352.832 5.51926 355.977 5.51926C359.122 5.51937 361.903 7.78993 363.879 11.3144C365.86 14.8496 367.076 19.7119 367.076 25.065C367.076 30.4182 365.86 35.2805 363.879 38.8157C361.903 42.3402 359.122 44.6107 355.977 44.6108C352.832 44.6108 350.051 42.3401 348.076 38.8157C346.094 35.2805 344.878 30.4182 344.878 25.065Z" fill="var(--fill-0, black)"/>
<path d="M349.953 25.065C349.953 14.4467 352.649 5.83893 355.976 5.83893C359.302 5.83893 361.998 14.4467 361.998 25.065C361.998 35.6833 359.302 44.2911 355.976 44.2911C352.649 44.2911 349.953 35.6833 349.953 25.065Z" fill="#7A9E7E"/>
<path d="M350.275 25.065C350.275 30.351 350.946 35.1239 352.024 38.5646C352.563 40.2869 353.2 41.6574 353.891 42.5904C354.586 43.5298 355.295 43.9713 355.976 43.9713C356.657 43.9712 357.366 43.5297 358.061 42.5904C358.752 41.6575 359.388 40.2868 359.927 38.5646C361.005 35.1239 361.677 30.351 361.677 25.065C361.677 19.7791 361.005 15.0062 359.927 11.5655C359.388 9.84338 358.752 8.47264 358.061 7.53967C357.366 6.60042 356.657 6.15893 355.976 6.1588C355.295 6.1588 354.586 6.60028 353.891 7.53967C353.2 8.47265 352.563 9.84321 352.024 11.5655C350.946 15.0062 350.275 19.7791 350.275 25.065ZM349.631 25.065C349.631 19.7329 350.308 14.8927 351.41 11.375C351.96 9.61811 352.622 8.17273 353.372 7.15995C354.118 6.15365 354.994 5.51926 355.976 5.51926C356.958 5.51939 357.833 6.15376 358.579 7.15995C359.329 8.17273 359.991 9.61811 360.541 11.375C361.643 14.8927 362.32 19.7329 362.32 25.065C362.32 30.3972 361.643 35.2374 360.541 38.7551C359.991 40.5119 359.329 41.9568 358.579 42.9695C357.833 43.9758 356.958 44.6107 355.976 44.6108C354.994 44.6108 354.118 43.9759 353.372 42.9695C352.622 41.9568 351.96 40.5119 351.41 38.7551C350.308 35.2374 349.631 30.3972 349.631 25.065Z" fill="var(--fill-0, black)"/>
</g>
</svg>
