<svg width="223" height="68" viewBox="0 0 223 68" fill="none" xmlns="http://www.w3.org/2000/svg">
<path d="M162.19 19.0383C163.114 19.2519 163.651 19.9167 163.95 20.4846C164.054 20.5973 164.153 20.7125 164.246 20.8287C164.863 21.6016 165.343 22.5463 165.698 23.5033C166.38 24.0859 166.97 24.757 167.327 25.492C167.738 26.3378 168.133 27.8449 168.435 29.4949C168.747 31.1939 168.988 33.2105 169.032 35.1583C169.076 37.0746 168.933 39.062 168.388 40.6262C168.114 41.4151 167.703 42.1965 167.069 42.7942C166.689 43.1531 166.247 43.4266 165.753 43.5954C165.629 44.0591 165.487 44.5049 165.326 44.9156C165.096 45.5028 164.795 46.1038 164.389 46.5973C163.983 47.0914 163.371 47.5945 162.524 47.709C162.153 47.7591 161.799 47.7265 161.467 47.6349C160.586 48.2996 159.543 48.5866 158.493 48.4484C156.305 49.4345 154.214 49.1618 152.645 47.8777C152.014 47.3612 151.506 46.7128 151.123 45.9847C150.513 45.5939 149.944 45.0499 149.412 44.4006C148.938 43.821 148.65 43.0449 148.461 42.3095C148.263 41.5377 148.132 40.6452 148.062 39.7055C147.922 37.8271 148.015 35.632 148.37 33.5986C148.719 31.6087 149.353 29.573 150.435 28.1743C150.809 27.6913 151.264 27.2486 151.811 26.9211C152.375 25.8285 153.118 24.9395 154.053 24.3387C154.111 23.6547 154.298 23.0179 154.641 22.4594C155.07 21.7601 155.684 21.2834 156.367 20.9934C156.426 20.9684 156.486 20.9448 156.546 20.9225C156.665 20.315 156.79 19.7282 156.919 19.1661C157.103 18.3585 157.908 17.8534 158.715 18.038C159.292 18.1699 159.714 18.6177 159.842 19.157C160.149 19.0698 160.463 19.0198 160.784 19.0108C160.906 19.0073 161.025 19.0098 161.143 19.0178C161.48 18.9564 161.831 18.9553 162.19 19.0383Z" fill="black"/>
<path fill-rule="evenodd" clip-rule="evenodd" d="M69.9928 28.0605C69.9389 27.7169 69.8715 27.3744 69.7875 27.0399C69.7251 24.9698 68.9163 22.5916 67.4535 20.9605C66.6746 20.092 65.6534 19.3754 64.4011 19.1094C63.1276 18.839 61.7799 19.07 60.4411 19.8138C58.6582 20.8043 57.5156 21.7755 56.6018 22.9484C56.3883 23.0667 56.1905 23.2094 56.0098 23.3713C55.5319 23.7996 55.1987 24.3373 54.9591 24.8478C54.3456 24.8634 53.7796 25.2575 53.5743 25.8733C52.1309 30.2036 51.4448 34.8353 52.5386 38.4934C52.7466 39.189 53.0207 39.8543 53.3683 40.4757C53.4748 41.0309 53.5966 41.5688 53.7336 42.0816C54.0537 43.2794 54.4751 44.4094 55.024 45.3152C55.5531 46.1884 56.3391 47.0783 57.4787 47.3796C57.7315 47.4465 57.9808 47.4794 58.2256 47.4826C58.6958 47.8896 59.205 48.2254 59.7373 48.4717C61.002 49.0568 62.5246 49.1806 63.9134 48.3526C65.2537 47.5535 66.1678 46.0442 66.6849 44.0228C66.758 43.7371 66.8301 43.436 66.8993 43.1225C67.0839 42.9422 67.2586 42.7503 67.4236 42.5474C68.578 41.1274 69.1723 39.2748 69.4927 37.4506C69.6227 36.7104 69.7118 35.9401 69.7714 35.1639C69.8974 34.5273 69.9965 33.843 70.066 33.1516C70.23 31.52 70.2463 29.6774 69.9928 28.0605ZM62.3771 45.7758C62.1015 45.9401 61.7652 45.9976 61.3461 45.8798C61.6039 45.6022 61.8593 45.2886 62.1129 44.94L62.1719 44.9401C62.517 44.9401 62.8496 44.9197 63.1696 44.8801C62.8882 45.3766 62.6014 45.642 62.3771 45.7758Z" fill="black"/>
</svg>
