<svg width="87" height="40" viewBox="0 0 87 40" fill="none" xmlns="http://www.w3.org/2000/svg">
<path fill-rule="evenodd" clip-rule="evenodd" d="M48.3466 5.62804C49.4845 5.08903 50.7767 5 51.7412 5C54.7038 5 57.4481 5.6764 60.0995 6.33926C60.343 6.40015 60.5385 6.49481 60.676 6.57171C60.7952 6.63836 60.9048 6.71185 60.9624 6.75046C60.9673 6.75374 60.9718 6.75678 60.976 6.75953C61.0032 6.77773 61.0238 6.79106 61.0387 6.80049C61.6326 6.97367 62.1832 7.31341 62.4978 7.50751C62.5437 7.53584 62.5846 7.56107 62.6198 7.58222C62.811 7.69689 62.9894 7.83677 63.1113 7.9345C63.1702 7.98166 63.2303 8.03087 63.2841 8.07498L63.3043 8.09151C63.3659 8.14193 63.4209 8.18676 63.4741 8.22903C63.5665 8.30235 63.6315 8.35005 63.6766 8.37997C64.0297 8.47488 64.3052 8.65519 64.4513 8.75752C64.6547 8.89999 64.8436 9.06408 64.9993 9.20979C65.313 9.50339 65.5971 9.82196 65.7537 10.0047C65.9702 10.2573 66.1643 10.5326 66.3108 10.7406C66.3247 10.7604 66.3382 10.7795 66.3512 10.7979C66.5216 11.0391 66.6347 11.1923 66.7412 11.3077C67.4545 12.0804 67.8885 13.1103 68.148 14.0349C68.4139 14.9822 68.5402 15.9757 68.5402 16.806C68.5402 16.9491 68.544 17.115 68.5482 17.2971C68.563 17.939 68.5824 18.7825 68.4558 19.542C68.4158 19.7819 68.3754 20.0138 68.336 20.2394C68.2016 21.0101 68.0798 21.7085 68.0317 22.4072C67.9963 22.9201 67.8913 23.5303 67.7387 24.1098C67.5901 24.6741 67.3683 25.3175 67.0533 25.8425C66.9831 25.9594 66.9307 26.1327 66.8132 26.6088C66.8101 26.6216 66.8068 26.6348 66.8035 26.6482C66.7082 27.0356 66.5523 27.6692 66.1862 28.2445C65.992 28.5496 65.8521 28.814 65.6901 29.1203C65.5718 29.3439 65.4417 29.5899 65.27 29.8904C64.9457 30.4579 64.4669 30.884 64.0617 31.1822C63.6411 31.4918 63.1979 31.737 62.8383 31.9142C61.0245 32.8079 58.5373 32.8278 56.8257 32.5301C56.4867 32.4712 56.1406 32.4456 55.7052 32.4135C55.6583 32.41 55.6104 32.4065 55.5613 32.4028C55.0891 32.3676 54.5174 32.3205 53.9337 32.1878C52.9818 31.9715 52.0958 31.6564 51.2658 31.3169C49.9199 30.7663 48.5777 30.166 47.2814 29.5703C46.6682 29.2886 46.0425 29.006 45.4947 28.8031C45.4132 28.7729 45.2915 28.7497 44.9948 28.7391C44.5389 28.7228 44.1714 28.5492 44.0311 28.4784C42.8103 28.445 41.9902 28.4455 41.3531 28.7731C40.9358 28.9877 40.5382 29.2707 40.0449 29.631C40.0195 29.6495 39.9938 29.6683 39.9678 29.6874C39.5188 30.0157 38.9797 30.4099 38.3813 30.7347C37.8763 31.0089 37.3747 31.3128 36.8449 31.6383C36.7768 31.6801 36.7082 31.7223 36.6391 31.7649C36.1794 32.0478 35.6954 32.3457 35.2034 32.6273C34.0662 33.2782 32.7864 33.9021 31.3102 34.2129C29.9244 34.5047 28.6465 34.519 27.3149 34.371C25.1941 34.1354 23.321 32.966 21.9009 31.9897C21.3153 31.587 20.9281 31.0733 20.6687 30.7175C20.6223 30.6538 20.5799 30.5952 20.5406 30.5409C20.3264 30.2452 20.2059 30.0787 20.0494 29.9308C19.2711 29.1958 18.4104 27.9814 18.0987 26.7865C17.9855 26.3525 17.8506 25.9175 17.7034 25.4483C17.6936 25.4171 17.6837 25.3857 17.6738 25.3542C17.5381 24.9219 17.3925 24.4582 17.2637 23.986C16.966 22.8946 16.9912 21.7247 17.0104 20.8286C17.0148 20.6271 17.0188 20.4395 17.0188 20.2698C17.0188 18.0166 17.4514 16.2019 18.5416 14.2196C19.0072 13.3732 19.6333 12.4124 20.3991 11.5523C21.047 10.8248 21.8439 10.1139 22.7809 9.63052C22.7503 8.86007 23.3148 8.18157 24.0939 8.08418C26.8654 7.73773 29.6276 7.48303 32.514 7.56104C33.8313 7.59665 35.0293 7.79402 36.2897 8.36119C36.3632 8.39427 36.4406 8.42579 36.5412 8.46597C36.5515 8.47008 36.5622 8.47435 36.5733 8.47876C36.6614 8.51388 36.7726 8.5582 36.8827 8.60603C37.0371 8.67309 37.213 8.75673 37.3987 8.86816C37.4977 8.87843 37.6121 8.89788 37.7325 8.93362C37.8964 8.98229 38.072 9.06036 38.2425 9.18103C38.3451 9.2537 38.4366 9.33519 38.5172 9.42269C38.5377 9.43163 38.5629 9.44261 38.5878 9.45368C39.2449 9.74575 39.7284 9.86494 40.411 9.86494C40.4047 9.86494 40.4014 9.86485 40.4014 9.86485C40.4014 9.86485 40.4726 9.8561 40.63 9.79789C40.8034 9.73374 41.0128 9.63406 41.2399 9.50581C41.7066 9.24236 42.1191 8.93232 42.305 8.75925C43.2967 7.83596 44.8877 7.14611 45.9363 6.82836C45.9333 6.82925 45.9318 6.82966 45.9318 6.82966C45.9318 6.82966 45.9693 6.81599 46.0504 6.77833C46.136 6.73855 46.2386 6.68647 46.3441 6.62842C46.4498 6.57024 46.5469 6.51246 46.6232 6.46308C46.6881 6.42108 46.715 6.40028 46.715 6.40028C47.1309 6.03028 47.6081 5.86836 47.8574 5.7877C47.9274 5.76506 47.9959 5.74413 48.0517 5.72708C48.1116 5.7088 48.1587 5.69441 48.2028 5.68022C48.2929 5.65123 48.3315 5.6352 48.3466 5.62804ZM34.4784 10.8719C34.4778 10.8781 34.4771 10.8843 34.4764 10.8905C34.3849 11.7138 33.6433 12.3071 32.82 12.2156C32.2961 12.1574 31.9154 11.9157 31.7707 11.8239C31.7661 11.8209 31.7617 11.8182 31.7576 11.8156C31.7385 11.8035 31.7251 11.795 31.7143 11.7881C31.712 11.7866 31.7099 11.7852 31.7078 11.7839C31.4127 11.7113 31.117 11.6145 30.8921 11.5409C30.8287 11.5202 30.771 11.5013 30.7205 11.4853C30.4167 11.3892 30.2248 11.3436 30.0622 11.3319C29.7719 11.3112 29.5048 11.2878 29.2555 11.2659C28.4561 11.1956 27.8389 11.1414 27.2221 11.2442C26.3437 11.3906 25.609 11.6906 24.6017 12.1019C24.5349 12.1291 24.467 12.1569 24.3978 12.1851C23.8283 12.4171 23.2275 12.8872 22.6396 13.5474C22.0606 14.1976 21.5583 14.9599 21.1703 15.6654C20.3388 17.1772 20.0188 18.4898 20.0188 20.2698C20.0188 20.574 20.0141 20.8504 20.0098 21.106C19.9956 21.9478 19.9852 22.5632 20.158 23.1966C20.2712 23.6116 20.4006 24.0239 20.5401 24.4682C20.5486 24.4954 20.5572 24.5227 20.5658 24.5501C20.7118 25.0154 20.8674 25.5152 21.0015 26.0292C21.1339 26.5367 21.617 27.2849 22.1092 27.7498C22.4913 28.1107 22.7985 28.5397 23.004 28.8266C23.0362 28.8717 23.066 28.9132 23.0931 28.9504C23.333 29.2796 23.4679 29.4263 23.6005 29.5175C25.0093 30.4861 26.3383 31.2441 27.6462 31.3894C28.7273 31.5095 29.6776 31.4909 30.6922 31.2773C31.7234 31.0602 32.6886 30.61 33.7132 30.0236C34.1605 29.7676 34.6001 29.4971 35.063 29.2122C35.1329 29.1692 35.2033 29.1259 35.2743 29.0822C35.8061 28.7555 36.3678 28.4142 36.95 28.0982C37.3675 27.8715 37.7608 27.5843 38.2568 27.222L38.2756 27.2083C38.7511 26.861 39.3263 26.442 39.9811 26.1052C41.374 25.3889 42.9856 25.4419 44.0621 25.4773C44.1427 25.4799 44.2203 25.4825 44.2946 25.4846C44.7682 25.4981 45.1439 25.6794 45.2816 25.7489C45.6286 25.7681 46.0717 25.8177 46.5367 25.9899C47.2066 26.238 47.9308 26.5672 48.5339 26.8443C49.8143 27.4326 51.1127 28.0129 52.4016 28.5402C53.1452 28.8444 53.8648 29.0957 54.5986 29.2624C54.9416 29.3404 55.3129 29.376 55.7846 29.4112C55.8322 29.4147 55.8812 29.4183 55.9315 29.4219C56.3454 29.4521 56.8447 29.4884 57.3397 29.5745C58.7365 29.8174 60.498 29.7229 61.5122 29.2231C61.7759 29.0932 62.0521 28.9364 62.2835 28.7661C62.5304 28.5844 62.6361 28.4529 62.6652 28.402C62.7404 28.2704 62.8358 28.0924 62.9428 27.8929C63.1572 27.493 63.418 27.0066 63.6552 26.6339C63.7295 26.5171 63.7898 26.3391 63.9006 25.8899C63.9067 25.8654 63.913 25.8394 63.9196 25.8122C64.0093 25.4442 64.1567 24.8392 64.4808 24.299C64.5871 24.1218 64.7215 23.7867 64.8376 23.3457C64.9498 22.9198 65.0183 22.4977 65.0388 22.2007C65.0988 21.3301 65.2569 20.4269 65.3956 19.6346C65.4312 19.4312 65.4655 19.2351 65.4966 19.0488C65.5727 18.5924 65.5633 18.161 65.551 17.5984C65.5459 17.3614 65.5402 17.1012 65.5402 16.806C65.5402 16.2499 65.4515 15.5291 65.2597 14.8457C65.0614 14.1394 64.7949 13.6221 64.5368 13.3425C64.2789 13.0632 64.0611 12.7555 63.9009 12.5288L63.8799 12.4991C63.7114 12.2604 63.5961 12.0972 63.476 11.9571C63.3529 11.8135 63.1492 11.5872 62.9493 11.4001C62.8752 11.3308 62.8155 11.2799 62.7718 11.2457C62.4952 11.1641 62.2718 11.0388 62.1282 10.9504C61.9305 10.8285 61.7488 10.6897 61.6088 10.5786C61.548 10.5303 61.4327 10.4363 61.3444 10.3643C61.294 10.3232 61.2524 10.2893 61.2348 10.2752C61.184 10.2344 61.1449 10.2041 61.114 10.1814C61.0887 10.1628 61.0751 10.154 61.0751 10.154L61.0763 10.1547C61.0185 10.12 60.9648 10.0877 60.9148 10.0575C60.527 9.8241 60.358 9.72231 60.1932 9.67895C59.777 9.56943 59.456 9.35292 59.3294 9.2675C59.3218 9.26236 59.3149 9.2577 59.3087 9.25356L59.3054 9.25137C59.2874 9.2393 59.2734 9.22997 59.2616 9.22212C56.6162 8.56152 54.2466 8 51.7412 8C50.8906 8 50.149 8.09379 49.6308 8.33926C49.4408 8.42927 49.2582 8.4921 49.1216 8.53604C49.0555 8.55731 48.9901 8.57728 48.9365 8.59366L48.9289 8.59597C48.8701 8.61395 48.8241 8.62805 48.7808 8.64207C48.7185 8.6622 48.6798 8.67704 48.6586 8.68569C48.3969 8.90749 48.0439 9.11728 47.7901 9.25692C47.5118 9.41 47.1273 9.60217 46.8063 9.69943C45.9443 9.96065 44.8561 10.4831 44.3493 10.9549C43.9595 11.3178 43.3462 11.7617 42.7148 12.1182C42.1482 12.4381 41.2654 12.8649 40.411 12.8649C39.242 12.8649 38.3441 12.6283 37.3694 12.1951C37.3645 12.1929 37.3559 12.1896 37.3442 12.1849C37.2571 12.1505 36.9927 12.0459 36.7102 11.8366C36.6307 11.8231 36.5415 11.8025 36.4465 11.7709C36.2722 11.7128 36.0897 11.6212 35.9178 11.4836C35.8777 11.4515 35.8201 11.4153 35.6875 11.3576C35.6219 11.3291 35.5547 11.3023 35.4602 11.2646L35.4288 11.2521C35.3258 11.211 35.196 11.1588 35.0586 11.097C34.8652 11.0099 34.6731 10.9354 34.4784 10.8719Z" fill="black"/>
<path d="M54.1019 13.3278C54.5285 13.289 54.9297 13.4329 55.228 13.695C55.5956 13.845 55.9305 14.0547 56.2321 14.3018C56.3182 14.3121 56.4051 14.3251 56.4929 14.3407C57.8952 14.5911 58.819 15.6262 59.3266 16.6123C59.7516 17.3285 59.9625 18.1693 59.9625 19.0464C59.9625 19.1653 59.9585 19.2829 59.9503 19.3987C59.9387 19.644 59.9081 19.886 59.8567 20.1209C59.5865 21.3562 58.8084 22.0865 57.944 22.4735C57.5682 22.8188 57.1243 23.1233 56.6406 23.3357C56.4511 23.4189 56.2438 23.4918 56.0242 23.5465C55.6911 23.7092 55.3455 23.7885 55.035 23.8182C54.4418 23.8748 53.8553 23.769 53.3776 23.6354C52.4348 23.3718 51.4923 22.8765 50.9795 22.4746C50.2273 21.885 49.8163 21.101 49.7106 20.2605C49.6952 20.1381 49.6864 20.0165 49.6836 19.896C49.5399 19.1016 49.6568 18.3041 49.8467 17.6597C50.2037 16.4479 50.9287 15.3092 51.6142 14.5781C51.9128 14.2595 52.251 13.9926 52.6268 13.7985C53.0609 13.5514 53.5537 13.3776 54.1019 13.3278Z" fill="black"/>
<path d="M31.1648 15.242C30.5411 15.242 29.9857 15.4495 29.5224 15.7303C29.2322 15.7225 29.0008 15.7843 28.8972 15.8139C28.555 15.9115 28.2027 16.105 28.218 16.0974C27.8806 16.2661 27.3647 16.5467 27.0146 17.0928C26.6575 17.6496 26.6206 18.2456 26.6206 18.6695C26.6206 18.8301 26.6148 19.0425 26.6082 19.2787C26.5957 19.7339 26.5806 20.2779 26.6004 20.7124C26.6353 21.4805 26.7705 22.3663 27.2473 23.2331C27.2973 23.324 27.3411 23.4154 27.4048 23.5487L27.4572 23.6578C27.5402 23.8302 27.6549 24.0639 27.8021 24.2962C28.1163 24.792 28.6301 25.3609 29.5009 25.6097C30.3278 25.846 30.975 25.9235 31.8263 25.9235C32.7697 25.9235 33.5938 25.6324 34.2585 25.1055C34.9013 24.596 35.3178 23.9284 35.5883 23.2785C36.1176 22.0067 36.1994 20.5359 36.1405 19.4753C36.0607 18.0384 35.4431 16.8977 34.4115 16.162C33.441 15.4699 32.2548 15.242 31.1648 15.242Z" fill="black"/>
</svg>
